<svg width="200" height="120" viewBox="0 0 200 120" fill="none" xmlns="http://www.w3.org/2000/svg">
<path d="M189 60C189 74.6807 178.714 88.1603 161.674 98.0254C144.66 107.876 121.09 114 95 114C68.9104 114 45.3398 107.876 28.3259 98.0254C11.2861 88.1603 1 74.6807 1 60C1 45.3193 11.2861 31.8397 28.3259 21.9746C45.3398 12.1244 68.9104 6 95 6C121.09 6 144.66 12.1244 161.674 21.9746C178.714 31.8397 189 45.3193 189 60Z" fill="url(#paint0_linear_1_2)" stroke="url(#paint1_linear_1_2)" stroke-width="2"/>
<path d="M25.24 71.56C25.2133 71.56 24.7733 71.5333 23.92 71.48C23.0933 71.4533 22.1333 71.3467 21.04 71.16C20.1333 71 19.3067 70.8933 18.56 70.84C17.84 70.76 17.4 70.72 17.24 70.72C17.2133 68.5067 17.0933 65.8267 16.88 62.68C17.0933 62.6533 17.3067 62.64 17.52 62.64C17.76 62.64 17.9733 62.64 18.16 62.64C18.6667 64.9867 19.5067 66.8 20.68 68.08C21.88 69.36 23.4533 70 25.4 70C27.1333 70 28.5467 69.5333 29.64 68.6C30.7333 67.64 31.28 66.3867 31.28 64.84C31.28 63.6667 30.9733 62.7067 30.36 61.96C29.7733 61.2133 28.9867 60.5867 28 60.08C27.04 59.5467 26.0133 59.0533 24.92 58.6C23.64 58.04 22.4133 57.4533 21.24 56.84C20.0933 56.2 19.1467 55.3867 18.4 54.4C17.6533 53.4133 17.28 52.1333 17.28 50.56C17.28 48.88 17.6933 47.44 18.52 46.24C19.3733 45.04 20.5067 44.1333 21.92 43.52C23.3333 42.88 24.8933 42.56 26.6 42.56C27.1333 42.56 27.68 42.5867 28.24 42.64C28.8267 42.6933 29.4267 42.7733 30.04 42.88C30.8133 42.9867 31.4 43.0533 31.8 43.08C32.2267 43.1067 32.5067 43.12 32.64 43.12C32.72 43.12 32.8667 43.12 33.08 43.12C33.2933 43.0933 33.4667 43.0667 33.6 43.04C33.6533 44.2133 33.7067 45.4267 33.76 46.68C33.8133 47.9333 33.8933 49.24 34 50.6C33.4667 50.68 33.0267 50.7067 32.68 50.68C32.0667 48.36 31.3067 46.6933 30.4 45.68C29.4933 44.64 28.2 44.12 26.52 44.12C25.0533 44.12 23.8 44.52 22.76 45.32C21.72 46.0933 21.2 47.2533 21.2 48.8C21.2 49.6267 21.3867 50.36 21.76 51C22.16 51.64 22.8133 52.2533 23.72 52.84C24.6267 53.4267 25.88 54.0533 27.48 54.72C28.36 55.0933 29.24 55.5067 30.12 55.96C31.0267 56.4133 31.8533 56.96 32.6 57.6C33.3467 58.2133 33.9467 58.9733 34.4 59.88C34.8533 60.76 35.08 61.8133 35.08 63.04C35.08 64.8533 34.6267 66.4 33.72 67.68C32.8133 68.9333 31.6133 69.8933 30.12 70.56C28.6533 71.2267 27.0267 71.56 25.24 71.56ZM57.355 48.6L51.475 59.08V66.04C51.475 66.8667 51.5017 67.52 51.555 68C51.6083 68.48 51.755 68.8267 51.995 69.04C52.235 69.2533 52.6217 69.4133 53.155 69.52C53.6883 69.6 54.4483 69.68 55.435 69.76C55.515 70.1867 55.515 70.6133 55.435 71.04C54.875 71.04 54.2083 71.0267 53.435 71C52.6617 71 51.8883 71 51.115 71C50.3683 70.9733 49.7417 70.96 49.235 70.96C48.7283 70.96 48.1017 70.9733 47.355 71C46.6083 71 45.8483 71 45.075 71C44.3017 71.0267 43.635 71.04 43.075 71.04C43.0217 70.64 43.0217 70.2133 43.075 69.76C44.355 69.6267 45.275 69.5067 45.835 69.4C46.395 69.2667 46.7417 69 46.875 68.6C47.0083 68.1733 47.075 67.4933 47.075 66.56V59.48L40.995 48.36C40.515 47.4533 40.115 46.7467 39.795 46.24C39.475 45.7067 39.155 45.32 38.835 45.08C38.5417 44.8133 38.1683 44.6267 37.715 44.52C37.2883 44.4133 36.6883 44.32 35.915 44.24C35.8617 43.8133 35.8617 43.3867 35.915 42.96C36.875 42.96 37.8617 42.9733 38.875 43C39.8883 43.0267 40.8883 43.04 41.875 43.04C42.7283 43.04 43.675 43.0267 44.715 43C45.755 42.9733 46.755 42.96 47.715 42.96C47.7683 43.36 47.7683 43.7867 47.715 44.24C46.5683 44.3467 45.755 44.48 45.275 44.64C44.795 44.7733 44.555 45.0267 44.555 45.4C44.555 45.5867 44.6217 45.84 44.755 46.16C44.915 46.4533 45.115 46.8267 45.355 47.28L50.595 57.08L55.875 47.32C56.355 46.44 56.595 45.84 56.595 45.52C56.595 45.12 56.315 44.8533 55.755 44.72C55.2217 44.56 54.2883 44.4 52.955 44.24C52.9017 43.7867 52.9017 43.36 52.955 42.96C53.3817 42.96 53.9283 42.9733 54.595 43C55.2617 43 55.915 43.0133 56.555 43.04C57.2217 43.04 57.7683 43.04 58.195 43.04C59.0483 43.04 59.835 43.0267 60.555 43C61.3017 42.9733 62.0883 42.96 62.915 42.96C62.9683 43.3867 62.9683 43.8133 62.915 44.24C62.1417 44.32 61.515 44.4133 61.035 44.52C60.555 44.6267 60.1417 44.8267 59.795 45.12C59.4483 45.3867 59.0883 45.8 58.715 46.36C58.3417 46.8933 57.8883 47.64 57.355 48.6ZM86.3597 43.84L68.4797 69.28H77.3997C79.933 69.28 81.7597 68.7067 82.8797 67.56C83.733 66.68 84.5997 65.1867 85.4797 63.08C85.9064 63.0267 86.3197 63.0267 86.7197 63.08C86.4264 64.7333 86.173 66.2267 85.9597 67.56C85.7464 68.8667 85.5864 70.0133 85.4797 71C85.0797 71 83.8397 71 81.7597 71C79.7064 70.9733 76.693 70.96 72.7197 70.96C70.613 70.96 68.9464 70.9733 67.7197 71C66.493 71 65.5197 71 64.7997 71C64.0797 71.0267 63.4264 71.04 62.8397 71.04C62.733 70.8 62.6797 70.5333 62.6797 70.24L80.5597 44.72H71.8397C69.813 44.72 68.3197 45.1867 67.3597 46.12C66.5064 46.9467 65.773 48.32 65.1597 50.24C64.733 50.2667 64.2797 50.2667 63.7997 50.24C64.013 48.9067 64.1997 47.64 64.3597 46.44C64.5197 45.24 64.653 44.0667 64.7597 42.92C66.493 43.0267 68.293 43.0933 70.1597 43.12C72.053 43.12 74.053 43.12 76.1597 43.12C78.3197 43.12 80.0397 43.12 81.3197 43.12C82.6264 43.0933 83.653 43.0667 84.3997 43.04C85.1464 43.0133 85.7464 43 86.1997 43C86.253 43.1067 86.293 43.24 86.3197 43.4C86.3464 43.5333 86.3597 43.68 86.3597 43.84ZM98.5697 58.36L97.5297 58.24V66.04C97.5297 66.8667 97.5564 67.52 97.6097 68C97.663 68.48 97.7964 68.8267 98.0097 69.04C98.2497 69.2533 98.623 69.4133 99.1297 69.52C99.663 69.6 100.396 69.68 101.33 69.76C101.41 70.1867 101.41 70.6133 101.33 71.04C100.796 71.04 100.156 71.0267 99.4097 71C98.663 71 97.9164 71 97.1697 71C96.423 70.9733 95.7964 70.96 95.2897 70.96C94.8097 70.96 94.183 70.9733 93.4097 71C92.6364 71 91.863 71 91.0897 71C90.3164 71.0267 89.663 71.04 89.1297 71.04C89.0497 70.64 89.0497 70.2133 89.1297 69.76C90.4097 69.6533 91.3297 69.5467 91.8897 69.44C92.4497 69.3067 92.7964 69.04 92.9297 68.64C93.063 68.2133 93.1297 67.52 93.1297 66.56V47.92C93.1297 46.8267 93.0497 46.04 92.8897 45.56C92.7564 45.08 92.4097 44.76 91.8497 44.6C91.2897 44.44 90.383 44.32 89.1297 44.24C89.0497 43.84 89.0497 43.4133 89.1297 42.96C89.6364 42.96 90.2897 42.9733 91.0897 43C91.9164 43 92.7164 43.0133 93.4897 43.04C94.2897 43.04 94.8764 43.04 95.2497 43.04C95.7297 43.04 96.343 43.04 97.0897 43.04C97.863 43.0133 98.623 42.9867 99.3697 42.96C100.143 42.9333 100.743 42.92 101.17 42.92C102.85 42.92 104.41 43.1467 105.85 43.6C107.316 44.0533 108.49 44.8 109.37 45.84C110.276 46.8533 110.73 48.2267 110.73 49.96C110.73 51.6667 110.21 53.1867 109.17 54.52C108.156 55.8533 106.543 56.8533 104.33 57.52V57.64C104.73 57.96 105.183 58.4933 105.69 59.24L109.89 65.32C110.583 66.3067 111.156 67.08 111.61 67.64C112.09 68.2 112.543 68.6267 112.97 68.92C113.396 69.1867 113.89 69.3733 114.45 69.48C115.01 69.5867 115.716 69.68 116.57 69.76C116.65 70.1867 116.65 70.6133 116.57 71.04C116.063 71.04 115.436 71.0267 114.69 71C113.943 71 113.223 71 112.53 71C111.836 70.9733 111.276 70.96 110.85 70.96C110.423 70.96 110.05 70.9733 109.73 71C109.41 71 109.036 71 108.61 71L101.21 60.08C100.756 59.3867 100.356 58.9467 100.01 58.76C99.663 58.5467 99.183 58.4133 98.5697 58.36ZM97.5297 56.6C97.8764 56.6533 98.183 56.6933 98.4497 56.72C98.7164 56.7467 98.9697 56.76 99.2097 56.76C101.29 56.76 102.93 56.2267 104.13 55.16C105.356 54.0933 105.97 52.52 105.97 50.44C105.97 48.5467 105.436 47.0933 104.37 46.08C103.33 45.0667 101.783 44.56 99.7297 44.56C99.463 44.56 99.1297 44.5733 98.7297 44.6C98.3564 44.6267 97.9564 44.6667 97.5297 44.72V56.6ZM114.584 71.04C114.531 70.6133 114.531 70.1867 114.584 69.76C115.331 69.68 115.931 69.5867 116.384 69.48C116.837 69.3733 117.224 69.1867 117.544 68.92C117.864 68.6267 118.171 68.2 118.464 67.64C118.757 67.0533 119.104 66.24 119.504 65.2L128.144 43.04C128.437 42.9333 128.784 42.8533 129.184 42.8C129.611 42.7467 129.971 42.72 130.264 42.72L138.864 65.56C139.237 66.52 139.544 67.28 139.784 67.84C140.024 68.3733 140.291 68.76 140.584 69C140.877 69.24 141.251 69.4133 141.704 69.52C142.157 69.6 142.784 69.68 143.584 69.76C143.637 70.1867 143.637 70.6133 143.584 71.04C142.651 71.04 141.691 71.0267 140.704 71C139.717 70.9733 138.731 70.96 137.744 70.96C136.731 70.96 135.704 70.9733 134.664 71C133.651 71.0267 132.637 71.04 131.624 71.04C131.544 70.64 131.544 70.2133 131.624 69.76C132.931 69.6267 133.837 69.5067 134.344 69.4C134.851 69.2667 135.104 68.9467 135.104 68.44C135.104 68.2267 135.064 67.9867 134.984 67.72C134.904 67.4533 134.797 67.12 134.664 66.72L132.384 60.56H123.384L121.384 66.08C121.197 66.5867 121.051 67.0133 120.944 67.36C120.864 67.68 120.824 67.9733 120.824 68.24C120.824 68.8267 121.091 69.2 121.624 69.36C122.184 69.4933 123.091 69.6267 124.344 69.76C124.397 70.2133 124.397 70.64 124.344 71.04C123.437 71.04 122.544 71.0267 121.664 71C120.784 70.9733 119.891 70.96 118.984 70.96C118.237 70.96 117.517 70.9733 116.824 71C116.131 71.0267 115.384 71.04 114.584 71.04ZM123.984 58.88H131.784L127.864 48.24L123.984 58.88ZM167.653 71.28L149.853 47.92V65.04C149.853 66.0533 149.879 66.84 149.933 67.4C149.986 67.9333 150.146 68.3467 150.413 68.64C150.679 68.9067 151.093 69.1333 151.653 69.32C152.213 69.5067 153.013 69.6533 154.053 69.76C154.106 70.1867 154.106 70.6133 154.053 71.04C153.253 71.04 152.359 71.0267 151.373 71C150.413 70.9733 149.599 70.96 148.933 70.96C148.266 70.96 147.439 70.9733 146.453 71C145.493 71.0267 144.626 71.04 143.853 71.04C143.773 70.64 143.773 70.2133 143.853 69.76C144.813 69.6267 145.559 69.5067 146.093 69.4C146.626 69.2667 147.013 69.08 147.253 68.84C147.493 68.5733 147.639 68.1867 147.693 67.68C147.773 67.1733 147.812 66.4667 147.812 65.56V49.16C147.812 48.0933 147.773 47.2533 147.693 46.64C147.639 46.0267 147.466 45.5733 147.173 45.28C146.906 44.96 146.479 44.7333 145.893 44.6C145.333 44.44 144.546 44.3067 143.533 44.2C143.506 43.8 143.506 43.3867 143.533 42.96C144.359 42.96 145.239 42.9733 146.173 43C147.106 43.0267 148.039 43.04 148.973 43.04C149.106 43.04 149.466 43.04 150.053 43.04C150.666 43.04 151.199 43.0267 151.653 43L167.893 64.36V49C167.893 47.9867 167.866 47.2 167.812 46.64C167.786 46.08 167.626 45.6667 167.333 45.4C166.773 44.8133 165.426 44.44 163.293 44.28C163.213 43.8267 163.213 43.4 163.293 43C163.799 43 164.399 43.0133 165.093 43.04C165.813 43.04 166.506 43.0533 167.173 43.08C167.839 43.08 168.386 43.08 168.813 43.08C169.479 43.08 170.306 43.0667 171.293 43.04C172.279 43.0133 173.159 43 173.933 43C173.986 43.4 173.986 43.8133 173.933 44.24C172.653 44.4 171.733 44.5867 171.173 44.8C170.613 44.9867 170.266 45.3467 170.133 45.88C169.999 46.4133 169.933 47.28 169.933 48.48V71.08C169.666 71.1333 169.306 71.1733 168.853 71.2C168.399 71.2533 167.999 71.28 167.653 71.28Z" fill="#FFF2CD"/>
<path d="M23 77L168 78" stroke="#FFF2CD" stroke-width="2" stroke-linecap="round"/>
<path d="M23 36L168 37" stroke="#FFF2CD" stroke-width="2" stroke-linecap="round"/>
<defs>
<linearGradient id="paint0_linear_1_2" x1="39.8922" y1="5" x2="150.108" y2="115" gradientUnits="userSpaceOnUse">
<stop stop-color="#997C2E"/>
<stop offset="1" stop-color="#BAA989"/>
</linearGradient>
<linearGradient id="paint1_linear_1_2" x1="40.9062" y1="5" x2="149.094" y2="115" gradientUnits="userSpaceOnUse">
<stop stop-color="#B9A886"/>
<stop offset="1" stop-color="#9B7F32"/>
</linearGradient>
</defs>
</svg>
